<?xml version="1.0" standalone="no"?>
<!DOCTYPE svg PUBLIC "-//W3C//DTD SVG 20010904//EN"
 "http://www.w3.org/TR/2001/REC-SVG-20010904/DTD/svg10.dtd">
<svg version="1.0" xmlns="http://www.w3.org/2000/svg"
 width="637.000000pt" height="637.000000pt" viewBox="0 0 637.000000 637.000000"
 preserveAspectRatio="xMidYMid meet">
<metadata>
Created by potrace 1.11, written by Peter Selinger 2001-2013
</metadata>
<g transform="translate(0.000000,637.000000) scale(0.100000,-0.100000)"
fill="#000000" stroke="none">
<path d="M230 4115 l0 -1375 2950 0 2950 0 0 1375 0 1375 -2950 0 -2950 0 0
-1375z"/>
<path d="M5587 2565 c-1 -2 -40 -5 -87 -8 -104 -7 -208 -43 -272 -95 -90 -74
-119 -149 -124 -326 -4 -145 12 -233 56 -311 37 -65 86 -110 221 -201 295
-202 292 -198 293 -361 1 -94 -1 -103 -23 -127 -26 -28 -67 -34 -101 -16 -25
14 -33 59 -34 210 l-1 125 -202 1 -202 2 4 -132 c3 -72 7 -142 10 -156 12 -71
18 -89 41 -137 57 -118 216 -198 413 -206 78 -4 211 13 256 32 132 56 200 115
229 201 14 42 20 91 22 205 4 218 -22 326 -102 415 -48 54 -158 136 -293 219
-131 81 -168 118 -178 180 -21 135 16 216 91 197 38 -9 46 -34 47 -150 l2
-105 201 2 201 2 -2 112 c-3 237 -65 333 -251 392 -55 17 -206 42 -215 36z
m279 -210 l18 -55 60 0 61 -1 -25 -22 c-14 -12 -37 -29 -50 -38 l-24 -16 21
-56 c11 -32 19 -57 17 -57 -2 0 -25 15 -51 34 l-48 34 -47 -35 c-27 -19 -48
-31 -48 -26 0 5 7 31 17 58 l16 49 -28 21 c-54 39 -71 56 -55 54 8 -1 36 -1
62 0 l47 1 17 55 c10 30 19 55 20 55 2 0 11 -25 20 -55z m-540 -60 c10 -30 22
-55 28 -56 6 0 36 0 66 1 l55 1 -49 -35 c-27 -20 -50 -37 -52 -39 -2 -2 4 -29
15 -60 10 -32 16 -57 14 -57 -2 0 -25 16 -49 34 l-45 35 -50 -35 c-27 -20 -49
-33 -49 -29 0 3 7 29 17 57 18 57 23 48 -55 108 l-27 21 25 -2 c14 -1 42 -1
62 0 36 1 38 3 54 56 10 30 19 55 20 55 2 0 11 -25 20 -55z m300 -480 l18 -55
64 0 65 0 -44 -31 c-24 -17 -47 -35 -52 -38 -4 -4 2 -33 12 -64 22 -64 21 -64
-48 -13 l-34 25 -49 -35 c-26 -20 -48 -32 -48 -27 0 5 7 31 17 58 18 54 21 47
-55 104 l-27 20 61 1 60 0 18 55 c9 30 19 55 21 55 2 0 12 -25 21 -55z m-265
-511 c4 -5 33 -9 64 -8 63 2 62 -8 -2 -47 -36 -23 -39 -39 -14 -103 16 -41 7
-43 -37 -7 -22 17 -43 31 -47 31 -4 0 -30 -16 -56 -35 -27 -19 -49 -33 -49
-32 0 2 9 30 20 61 l19 57 -44 31 c-25 18 -45 35 -45 38 0 4 23 6 52 6 57 -1
59 1 89 83 l13 34 14 -49 c8 -27 18 -54 23 -60z m545 -19 l18 -55 60 0 c67 -1
68 1 -8 -55 l-27 -20 20 -58 c21 -61 21 -61 -43 -15 -41 30 -42 30 -98 -15
-43 -33 -45 -30 -21 38 18 54 21 47 -55 104 l-27 20 62 1 62 0 16 55 c8 30 17
55 20 55 2 0 12 -25 21 -55z"/>
<path d="M2179 2542 c-173 -46 -289 -170 -314 -337 -11 -76 -14 -898 -3 -995
17 -157 97 -274 229 -338 158 -78 321 -56 418 55 28 31 42 41 46 32 2 -8 11
-32 18 -54 l14 -40 136 -3 137 -3 1 33 c0 18 0 220 1 448 l1 415 -254 0 -254
0 -3 -127 -2 -128 46 0 45 0 -2 -152 c-3 -202 -14 -238 -76 -238 -39 0 -52 11
-63 51 -14 48 -13 1039 1 1076 12 33 26 43 60 43 52 0 61 -25 65 -179 2 -78 4
-151 4 -165 l0 -23 216 0 217 0 -6 146 c-8 210 -31 279 -119 362 -62 59 -146
104 -229 124 -86 20 -246 18 -330 -3z m-83 -227 l18 -55 60 0 61 -1 -23 -19
c-13 -11 -35 -27 -48 -37 -24 -18 -24 -19 -9 -68 8 -28 15 -53 15 -57 0 -5
-21 7 -48 26 l-47 35 -48 -35 c-52 -38 -54 -36 -32 26 8 23 15 46 15 50 0 4
-23 24 -52 44 l-52 36 65 0 65 0 18 55 c9 30 19 55 21 55 2 0 12 -25 21 -55z
m645 -125 l64 -5 -47 -30 c-52 -33 -55 -42 -33 -105 8 -23 15 -45 15 -47 0 -3
-23 12 -51 32 -50 37 -50 37 -72 18 -12 -11 -34 -27 -48 -36 l-27 -16 14 45
c7 25 15 48 18 52 7 12 -4 24 -53 59 l-44 32 63 3 62 3 21 55 21 55 17 -55 16
-55 64 -5z m-619 -427 c6 -7 30 -10 64 -8 30 2 54 1 54 0 0 -2 -20 -18 -45
-36 -49 -35 -52 -44 -31 -104 8 -22 13 -41 11 -43 -2 -2 -22 10 -46 27 -23 17
-46 31 -52 31 -5 0 -27 -14 -49 -31 -21 -17 -40 -30 -42 -28 -2 2 4 28 14 57
l17 52 -48 36 c-27 20 -49 37 -49 38 0 1 24 1 53 1 62 -2 77 2 77 21 0 7 8 32
17 55 l16 42 15 -49 c8 -27 18 -54 24 -61z m558 -121 l21 -58 60 1 c32 1 59 0
59 -1 0 -2 -20 -17 -45 -35 -49 -35 -52 -44 -31 -104 8 -22 13 -41 11 -43 -2
-2 -22 10 -46 27 -23 17 -46 31 -52 31 -5 0 -26 -13 -47 -30 -21 -16 -40 -30
-43 -30 -3 0 3 25 13 55 l19 55 -45 32 c-24 17 -44 35 -44 38 0 4 22 6 49 5
28 -1 54 1 59 4 5 3 15 30 22 59 8 28 15 52 16 52 2 0 12 -26 24 -58z m-558
-428 c4 -6 30 -10 58 -9 27 1 50 -2 50 -6 0 -5 -18 -21 -40 -35 -45 -30 -46
-34 -25 -94 8 -24 13 -45 11 -48 -3 -2 -23 10 -44 27 -22 17 -44 31 -49 31 -5
0 -27 -13 -49 -30 -21 -16 -42 -30 -46 -30 -4 0 2 25 12 55 l19 55 -45 32
c-24 17 -44 34 -44 38 0 4 21 6 48 5 60 -2 69 1 76 30 3 13 11 37 17 52 l11
28 17 -45 c9 -25 19 -50 23 -56z m578 4 l13 -48 61 0 61 -1 -27 -22 c-15 -12
-36 -29 -48 -37 l-21 -15 20 -58 c21 -61 21 -61 -43 -15 l-39 28 -48 -35 c-27
-19 -49 -31 -49 -27 0 5 7 30 17 57 18 54 21 47 -55 104 l-27 20 62 1 62 0 17
55 c10 30 21 52 24 48 4 -5 13 -29 20 -55z"/>
<path d="M259 2512 c-1 -22 -1 -1634 0 -1644 1 -5 98 -8 216 -8 l215 0 0 375
0 376 40 -3 c50 -2 77 -26 86 -74 4 -21 7 -180 7 -356 l1 -318 200 2 201 3 0
335 c-1 329 -1 336 -24 382 -25 52 -94 118 -122 118 -10 0 -21 5 -24 10 -3 6
-15 10 -26 10 -11 0 -17 5 -14 10 3 6 16 10 28 10 12 0 45 11 73 24 60 28 87
74 102 171 13 82 6 268 -12 337 -28 105 -94 184 -181 217 -72 27 -145 33 -472
36 -268 3 -293 2 -294 -13z m267 -183 c8 0 35 -1 60 -2 51 -1 52 1 -21 -53
l-29 -20 17 -51 c9 -29 17 -55 17 -58 0 -4 -22 9 -49 29 l-50 35 -43 -34 c-24
-19 -46 -35 -50 -35 -4 0 2 25 12 56 l20 56 -23 19 c-12 11 -34 26 -49 34 -16
9 -28 17 -28 19 0 2 25 4 56 4 50 0 78 10 79 30 1 4 7 25 15 47 l13 40 19 -57
c11 -33 26 -58 34 -59z m522 -110 l17 -54 58 0 c31 1 57 -2 57 -5 0 -3 -20
-18 -45 -35 -24 -16 -45 -33 -45 -36 0 -3 9 -32 20 -63 l19 -57 -48 35 c-27
20 -52 36 -56 36 -4 0 -25 -14 -47 -31 -21 -17 -42 -29 -45 -26 -3 4 2 24 11
47 22 57 21 61 -29 95 -24 16 -42 32 -39 35 3 3 29 5 57 5 l52 0 20 57 c10 31
21 56 22 54 2 -2 11 -27 21 -57z m-268 6 c35 -18 43 -50 42 -173 -1 -152 -9
-167 -92 -178 l-40 -6 0 186 0 186 30 0 c17 0 44 -7 60 -15z m-284 -453 l17
-59 65 2 64 1 -28 -20 c-16 -12 -39 -30 -52 -41 l-24 -20 20 -53 c11 -28 17
-52 13 -52 -4 0 -25 13 -47 30 -21 16 -42 30 -47 30 -4 0 -26 -14 -49 -30 -23
-17 -43 -29 -45 -27 -2 2 4 23 12 47 8 23 15 48 15 55 0 7 -21 27 -47 44 -27
17 -43 31 -38 32 6 1 33 2 60 3 l50 1 20 58 c11 31 21 57 22 57 1 0 10 -26 19
-58z m544 -192 c6 -4 33 -6 60 -5 28 1 50 -1 50 -5 0 -3 -12 -13 -27 -23 -68
-41 -67 -40 -48 -97 18 -53 16 -70 -7 -51 -45 39 -62 51 -70 51 -4 0 -27 -13
-50 -30 -43 -31 -68 -40 -51 -17 5 6 15 32 22 55 14 48 14 48 -56 93 -18 11
-33 22 -33 23 0 1 28 2 62 1 l63 0 19 58 20 59 18 -53 c10 -29 23 -56 28 -59z
m80 -446 c30 -1 57 -2 59 -3 5 -1 -54 -47 -78 -60 -11 -7 -10 -19 7 -71 l21
-62 -32 25 c-67 50 -74 51 -119 18 -23 -17 -43 -29 -45 -27 -2 2 4 27 13 56
15 45 15 54 3 61 -40 23 -81 59 -68 60 8 1 34 2 59 3 l45 1 20 57 19 58 21
-58 20 -57 55 -1z m-625 51 l16 -55 62 -1 c61 0 62 0 37 -17 -13 -9 -35 -26
-49 -38 l-24 -21 16 -51 c9 -28 17 -54 17 -57 0 -4 -22 9 -48 29 l-49 35 -34
-25 c-69 -51 -70 -51 -48 13 l20 58 -25 18 c-13 10 -35 26 -48 37 l-23 19 58
1 c62 0 57 -5 87 78 7 17 14 32 16 32 1 0 10 -25 19 -55z"/>
<path d="M1321 1694 l0 -834 218 0 218 0 -1 833 -1 832 -217 1 -217 2 0 -834z
m233 703 c11 -57 26 -70 84 -70 29 0 52 -2 52 -6 0 -5 -36 -32 -82 -62 -4 -3
-2 -25 7 -48 24 -69 20 -76 -24 -42 -21 17 -44 31 -51 31 -6 0 -32 -14 -56
-31 l-45 -30 7 28 c4 15 11 36 15 45 17 32 9 48 -42 82 l-52 35 62 -1 c34 -1
66 3 70 8 4 5 14 30 21 56 14 53 25 55 34 5z m28 -678 c5 -3 33 -5 63 -4 30 0
55 0 55 -1 0 -1 -22 -18 -49 -38 l-48 -36 18 -52 c10 -29 16 -54 14 -56 -1 -2
-23 11 -49 29 l-46 33 -44 -32 c-24 -18 -47 -32 -50 -32 -3 0 4 25 14 55 l19
56 -44 31 c-25 18 -45 35 -45 38 0 4 22 6 49 4 27 -1 53 1 58 5 6 3 18 31 28
61 l18 55 15 -55 c9 -30 19 -58 24 -61z m-22 -539 l12 -50 66 0 66 0 -51 -36
c-48 -33 -51 -37 -42 -65 32 -103 36 -98 -34 -48 l-39 28 -49 -35 c-27 -19
-49 -31 -49 -26 0 4 8 30 18 58 l19 50 -51 34 -50 35 62 3 61 3 17 54 c10 30
21 52 25 50 4 -3 12 -27 19 -55z"/>
<path d="M2962 1693 l0 -833 218 0 217 0 1 328 c0 180 1 337 1 350 1 20 6 22
64 22 l63 0 0 -350 -1 -350 218 0 217 0 -2 833 -3 832 -212 1 c-207 1 -211 1
-215 -20 -2 -12 -3 -146 -2 -298 l1 -278 -64 0 c-43 0 -63 4 -64 13 0 6 -1
141 -1 298 l-1 286 -218 0 -217 -1 0 -833z m238 688 c15 -55 14 -54 95 -52
l50 1 -45 -32 c-25 -18 -48 -37 -51 -42 -4 -5 1 -33 11 -62 11 -30 17 -54 14
-54 -2 0 -25 15 -51 34 l-46 34 -50 -36 c-55 -39 -54 -41 -24 46 13 37 13 37
-61 91 l-27 20 58 -2 c65 -1 71 3 88 70 6 24 14 41 18 39 4 -3 13 -28 21 -55z
m595 -49 c2 -2 30 -4 62 -4 63 0 64 2 -12 -54 l-29 -20 18 -53 c9 -29 15 -55
13 -57 -2 -2 -25 12 -50 31 -37 28 -48 33 -59 22 -17 -16 -75 -57 -81 -57 -3
0 4 25 15 56 11 30 18 57 15 60 -2 2 -26 20 -52 39 l-49 34 63 -2 c37 -2 65 2
66 8 2 5 11 32 21 59 l18 49 18 -53 c10 -29 20 -55 23 -58z m-514 -617 l61 1
-24 -21 c-13 -11 -34 -27 -48 -36 l-24 -16 16 -56 c9 -31 14 -57 11 -57 -3 0
-22 14 -43 30 -21 17 -41 30 -45 30 -4 0 -30 -16 -56 -35 -27 -19 -49 -33 -49
-32 0 2 9 30 20 62 11 32 16 61 12 64 -5 3 -25 16 -45 29 -20 13 -37 27 -37
31 0 4 25 7 57 7 l56 -1 20 59 20 59 18 -59 18 -60 62 1z m494 61 c10 -30 22
-57 29 -59 6 -2 32 -3 59 -3 26 1 47 -2 47 -6 0 -3 -17 -17 -37 -30 -20 -13
-40 -25 -45 -29 -4 -3 -3 -19 2 -37 6 -18 14 -46 19 -62 l10 -31 -48 36 c-27
19 -52 35 -56 35 -4 0 -25 -14 -47 -31 -21 -17 -41 -29 -44 -27 -2 3 3 24 11
48 21 58 20 61 -25 93 -22 16 -40 32 -40 36 0 4 24 8 53 7 l52 -1 20 58 c11
31 20 57 21 57 1 0 10 -24 19 -54z m-575 -595 l14 -51 58 0 c56 0 76 -12 41
-25 -10 -3 -30 -16 -45 -28 l-26 -22 18 -57 c11 -36 13 -55 6 -51 -6 4 -28 19
-50 35 l-39 28 -48 -36 c-27 -20 -49 -32 -49 -27 0 4 8 31 18 59 l19 50 -51
34 -50 35 62 3 61 3 17 54 c10 30 20 52 24 50 3 -2 12 -27 20 -54z m653 -51
l62 -1 -25 -19 c-14 -11 -36 -29 -49 -39 -24 -19 -24 -19 -8 -69 10 -28 17
-54 17 -57 0 -4 -22 9 -49 29 l-48 36 -46 -35 c-25 -19 -48 -35 -50 -35 -2 0
4 26 14 57 11 31 16 60 12 64 -5 3 -28 21 -52 38 l-44 31 65 0 65 0 13 48 c19
70 22 71 43 9 l19 -57 61 0z"/>
<path d="M4064 2361 l1 -166 120 -2 c66 -1 123 -2 126 -2 3 -1 5 -295 4 -653
0 -359 1 -659 3 -665 3 -10 56 -13 218 -13 197 0 214 1 215 18 0 9 0 308 0
665 l1 647 51 1 c29 0 87 1 130 1 l77 -1 0 168 0 168 -474 0 -474 0 2 -166z
m327 34 c66 3 67 -6 3 -46 -38 -23 -41 -39 -18 -94 8 -20 13 -39 10 -42 -3 -3
-23 9 -44 26 -22 17 -43 31 -47 31 -4 0 -29 -16 -55 -35 l-48 -35 15 47 c8 27
17 55 20 65 3 10 -2 19 -14 22 -10 4 -33 19 -51 35 l-32 28 42 0 c86 1 83 -1
103 61 l18 57 20 -61 19 -62 59 3z m424 55 l16 -49 62 -3 61 -3 -50 -34 -50
-35 18 -54 c10 -31 18 -57 18 -59 0 -3 -22 11 -49 31 l-48 36 -39 -28 c-65
-46 -64 -46 -44 14 11 32 20 58 20 59 0 1 -23 17 -50 36 l-50 34 62 5 62 5 15
48 c8 26 18 47 22 47 4 0 15 -22 24 -50z m-267 -681 l17 -54 53 -1 c28 -1 55
-2 59 -3 7 -1 -47 -44 -76 -60 -11 -7 -12 -14 -2 -42 7 -19 17 -47 21 -62 l9
-28 -48 36 c-27 19 -52 35 -56 35 -4 0 -25 -14 -47 -31 -21 -17 -41 -29 -44
-27 -2 3 3 24 11 48 21 61 20 65 -29 96 -25 16 -43 31 -41 34 2 4 23 6 47 5
60 -3 72 6 87 65 7 28 15 49 17 47 3 -2 12 -28 22 -58z m75 -639 l62 -1 -27
-20 c-78 -58 -75 -51 -55 -105 9 -27 17 -53 17 -57 0 -5 -22 7 -49 27 l-50 35
-38 -28 c-63 -45 -63 -45 -42 16 l19 57 -27 23 c-16 12 -36 25 -45 28 -10 4
-18 11 -18 16 0 6 8 9 18 8 9 -1 35 -1 58 0 40 1 40 1 59 59 l18 57 19 -57 20
-58 61 0z"/>
</g>
</svg>
